<svg xmlns="http://www.w3.org/2000/svg" viewBox="0 0 800 800">
    <path fill="#61DAFB"
        d="M400 0C178.3 0 0 178.3 0 400s178.3 400 400 400 400-178.3 400-400S621.7 0 400 0zm0 750c-193.3 0-350-156.7-350-350S206.7 50 400 50s350 156.7 350 350-156.7 350-350 350z" />
    <path fill="#20232A"
        d="M400 150c-138.3 0-250 111.7-250 250s111.7 250 250 250 250-111.7 250-250-111.7-250-250-250zm0 450c-110.5 0-200-89.5-200-200s89.5-200 200-200 200 89.5 200 200-89.5 200-200 200z" />
    <path fill="#20232A" d="M400 250c-82.8 0-150 67.2-150 150s67.2 150 150 150 150-67.2 150-150-67.2-150-150-150z" />
</svg>